AG-EITP-Heavy.ufo
<glyph name="percent" format="2">
  <advance width="800"/>
  <unicode hex="0025"/>
  <outline>
    <contour>
      <point x="170" y="0" type="line"/>
      <point x="910" y="734" type="line"/>
      <point x="816" y="734" type="line"/>
      <point x="76" y="0" type="line"/>
    </contour>
    <contour>
      <point x="325" y="440" type="curve" smooth="yes"/>
      <point x="266" y="440"/>
      <point x="274" y="500"/>
      <point x="286" y="546" type="curve" smooth="yes"/>
      <point x="299" y="593"/>
      <point x="323" y="654"/>
      <point x="382" y="654" type="curve" smooth="yes"/>
      <point x="441" y="654"/>
      <point x="433" y="592"/>
      <point x="421" y="546" type="curve" smooth="yes"/>
      <point x="409" y="500"/>
      <point x="384" y="440"/>
    </contour>
    <contour>
      <point x="310" y="380" type="curve" smooth="yes"/>
      <point x="402" y="380"/>
      <point x="463" y="451"/>
      <point x="489" y="547" type="curve" smooth="yes"/>
      <point x="515" y="643"/>
      <point x="491" y="713"/>
      <point x="400" y="713" type="curve" smooth="yes"/>
      <point x="309" y="713"/>
      <point x="245" y="643"/>
      <point x="219" y="546" type="curve" smooth="yes"/>
      <point x="194" y="451"/>
      <point x="218" y="380"/>
    </contour>
    <contour>
      <point x="602" y="80" type="curve" smooth="yes"/>
      <point x="543" y="80"/>
      <point x="552" y="140"/>
      <point x="564" y="186" type="curve" smooth="yes"/>
      <point x="577" y="233"/>
      <point x="601" y="294"/>
      <point x="660" y="294" type="curve" smooth="yes"/>
      <point x="719" y="294"/>
      <point x="711" y="232"/>
      <point x="699" y="186" type="curve" smooth="yes"/>
      <point x="687" y="140"/>
      <point x="661" y="80"/>
    </contour>
    <contour>
      <point x="587" y="20" type="curve" smooth="yes"/>
      <point x="679" y="20"/>
      <point x="740" y="91"/>
      <point x="766" y="187" type="curve" smooth="yes"/>
      <point x="792" y="283"/>
      <point x="769" y="353"/>
      <point x="678" y="353" type="curve" smooth="yes"/>
      <point x="587" y="353"/>
      <point x="523" y="283"/>
      <point x="497" y="186" type="curve" smooth="yes"/>
      <point x="472" y="91"/>
      <point x="495" y="20"/>
    </contour>
  </outline>
</glyph>
<glyph name="ampersand" format="2">
  <advance width="635"/>
  <unicode hex="0026"/>
  <outline>
    <contour>
      <point x="266" y="-16" type="curve" smooth="yes"/>
      <point x="321" y="-16"/>
      <point x="392" y="2"/>
      <point x="445" y="30" type="curve"/>
      <point x="457" y="6"/>
      <point x="488" y="-11"/>
      <point x="529" y="-11" type="curve" smooth="yes"/>
      <point x="560" y="-11"/>
      <point x="597" y="-3"/>
      <point x="622" y="8" type="curve"/>
      <point x="635" y="114" type="line"/>
      <point x="619" y="111"/>
      <point x="602" y="109"/>
      <point x="593" y="109" type="curve" smooth="yes"/>
      <point x="581" y="109"/>
      <point x="571" y="113"/>
      <point x="567" y="119" type="curve"/>
      <point x="567" y="120"/>
      <point x="569" y="122"/>
      <point x="577" y="129" type="curve" smooth="yes"/>
      <point x="631" y="177"/>
      <point x="674" y="247"/>
      <point x="688" y="304" type="curve"/>
      <point x="565" y="304" type="line"/>
      <point x="560" y="277"/>
      <point x="542" y="245"/>
      <point x="519" y="223" type="curve"/>
      <point x="454" y="370" type="line"/>
      <point x="537" y="385"/>
      <point x="607" y="453"/>
      <point x="629" y="535" type="curve" smooth="yes"/>
      <point x="657" y="638"/>
      <point x="589" y="696"/>
      <point x="493" y="696" type="curve" smooth="yes"/>
      <point x="386" y="696"/>
      <point x="297" y="625"/>
      <point x="270" y="526" type="curve" smooth="yes"/>
      <point x="257" y="479"/>
      <point x="260" y="431"/>
      <point x="278" y="407" type="curve"/>
      <point x="200" y="376"/>
      <point x="131" y="298"/>
      <point x="107" y="207" type="curve" smooth="yes"/>
      <point x="72" y="76"/>
      <point x="144" y="-16"/>
    </contour>
    <contour>
      <point x="503" y="546" type="curve" smooth="yes"/>
      <point x="494" y="511"/>
      <point x="457" y="481"/>
      <point x="410" y="470" type="curve"/>
      <point x="396" y="473"/>
      <point x="391" y="495"/>
      <point x="399" y="523" type="curve" smooth="yes"/>
      <point x="409" y="562"/>
      <point x="434" y="587"/>
      <point x="469" y="587" type="curve" smooth="yes"/>
      <point x="503" y="587"/>
      <point x="508" y="564"/>
    </contour>
    <contour>
      <point x="324" y="303" type="curve"/>
      <point x="401" y="131" type="line"/>
      <point x="375" y="117"/>
      <point x="343" y="108"/>
      <point x="318" y="108" type="curve" smooth="yes"/>
      <point x="268" y="108"/>
      <point x="221" y="144"/>
      <point x="238" y="207" type="curve" smooth="yes"/>
      <point x="249" y="248"/>
      <point x="284" y="287"/>
    </contour>
  </outline>
</glyph>
<glyph name="quotesingle" format="2">
  <advance width="205"/>
  <unicode hex="0027"/>
  <outline>
    <contour>
      <point x="270" y="581" type="curve"/>
      <point x="276" y="577"/>
      <point x="281" y="574"/>
      <point x="281" y="572" type="curve"/>
      <point x="260" y="552"/>
      <point x="230" y="533"/>
      <point x="206" y="524" type="curve"/>
      <point x="218" y="494" type="line"/>
      <point x="291" y="500"/>
      <point x="340" y="557"/>
      <point x="341" y="627" type="curve" smooth="yes"/>
      <point x="342" y="682"/>
      <point x="312" y="709"/>
      <point x="268" y="709" type="curve" smooth="yes"/>
      <point x="225" y="709"/>
      <point x="191" y="682"/>
      <point x="191" y="643" type="curve" smooth="yes"/>
      <point x="191" y="607"/>
      <point x="219" y="579"/>
      <point x="256" y="579" type="curve" smooth="yes"/>
      <point x="262" y="579"/>
      <point x="268" y="580"/>
    </contour>
  </outline>
</glyph>
<glyph name="parenleft" format="2">
  <advance width="575"/>
  <unicode hex="0028"/>
  <outline>
    <contour>
      <point x="142" y="348" type="curve" smooth="yes"/>
      <point x="79" y="114"/>
      <point x="151" y="-76"/>
      <point x="324" y="-126" type="curve"/>
      <point x="407" y="-29" type="line"/>
      <point x="295" y="41"/>
      <point x="247" y="192"/>
      <point x="289" y="348" type="curve" smooth="yes"/>
      <point x="330" y="501"/>
      <point x="459" y="653"/>
      <point x="610" y="727" type="curve"/>
      <point x="579" y="824" type="line"/>
      <point x="379" y="773"/>
      <point x="205" y="582"/>
    </contour>
  </outline>
</glyph>
<glyph name="parenright" format="2">
  <advance width="575"/>
  <unicode hex="0029"/>
  <outline>
    <contour>
      <point x="619" y="349" type="curve" smooth="yes"/>
      <point x="682" y="583"/>
      <point x="610" y="774"/>
      <point x="437" y="824" type="curve"/>
      <point x="354" y="727" type="line"/>
      <point x="466" y="655"/>
      <point x="513" y="505"/>
      <point x="472" y="352" type="curve" smooth="yes"/>
      <point x="430" y="196"/>
      <point x="302" y="45"/>
      <point x="151" y="-29" type="curve"/>
      <point x="182" y="-126" type="line"/>
      <point x="382" y="-75"/>
      <point x="556" y="115"/>
    </contour>
  </outline>
</glyph>
<glyph name="hyphen" format="2">
  <advance width="355"/>
  <unicode hex="002D"/>
  <outline>
    <contour>
      <point x="386" y="355" type="line"/>
      <point x="169" y="355" type="line"/>
      <point x="141" y="250" type="line"/>
      <point x="358" y="250" type="line"/>
    </contour>
  </outline>
</glyph>
<glyph name="period" format="2">
  <advance width="280"/>
  <unicode hex="002E"/>
  <outline>
    <contour>
      <point x="232" y="49" type="curve" smooth="yes"/>
      <point x="232" y="89"/>
      <point x="199" y="124"/>
      <point x="157" y="124" type="curve" smooth="yes"/>
      <point x="115" y="124"/>
      <point x="82" y="89"/>
      <point x="82" y="49" type="curve" smooth="yes"/>
      <point x="82" y="9"/>
      <point x="115" y="-26"/>
      <point x="157" y="-26" type="curve" smooth="yes"/>
      <point x="199" y="-26"/>
      <point x="232" y="9"/>
    </contour>
  </outline>
</glyph>
<glyph name="slash" format="2">
  <advance width="405"/>
  <unicode hex="002F"/>
  <outline>
    <contour>
      <point x="-22" y="-134" type="line"/>
      <point x="76" y="-164" type="line"/>
      <point x="548" y="688" type="line"/>
      <point x="451" y="719" type="line"/>
    </contour>
  </outline>
</glyph>
<glyph name="zero" format="2">
  <advance width="725"/>
  <unicode hex="0030"/>
  <outline>
    <contour>
      <point x="160" y="351" type="curve" smooth="yes"/>
      <point x="98" y="121"/>
      <point x="167" y="-17"/>
      <point x="358" y="-17" type="curve" smooth="yes"/>
      <point x="547" y="-17"/>
      <point x="690" y="120"/>
      <point x="752" y="350" type="curve" smooth="yes"/>
      <point x="814" y="580"/>
      <point x="744" y="717"/>
      <point x="554" y="717" type="curve" smooth="yes"/>
      <point x="364" y="717"/>
      <point x="222" y="581"/>
    </contour>
    <contour>
      <point x="308" y="355" type="curve" smooth="yes"/>
      <point x="351" y="514"/>
      <point x="424" y="587"/>
      <point x="519" y="587" type="curve" smooth="yes"/>
      <point x="614" y="587"/>
      <point x="649" y="514"/>
      <point x="606" y="355" type="curve" smooth="yes"/>
      <point x="563" y="196"/>
      <point x="487" y="113"/>
      <point x="392" y="113" type="curve" smooth="yes"/>
      <point x="297" y="113"/>
      <point x="265" y="196"/>
    </contour>
  </outline>
</glyph>
<glyph name="one" format="2">
  <advance width="420"/>
  <unicode hex="0031"/>
  <outline>
    <contour>
      <point x="163" y="0" type="line"/>
      <point x="306" y="0" type="line"/>
      <point x="494" y="700" type="line"/>
      <point x="367" y="700" type="line"/>
      <point x="364" y="641"/>
      <point x="299" y="598"/>
      <point x="205" y="593" type="curve"/>
      <point x="173" y="474" type="line"/>
      <point x="290" y="474" type="line"/>
    </contour>
  </outline>
</glyph>
<glyph name="two" format="2">
  <advance width="625"/>
  <unicode hex="0032"/>
  <outline>
    <contour>
      <point x="113" y="130" type="curve"/>
      <point x="78" y="0" type="line"/>
      <point x="571" y="0" type="line"/>
      <point x="606" y="130" type="line"/>
      <point x="359" y="130" type="line"/>
      <point x="528" y="173"/>
      <point x="669" y="310"/>
      <point x="712" y="469" type="curve" smooth="yes"/>
      <point x="754" y="624"/>
      <point x="678" y="715"/>
      <point x="512" y="715" type="curve" smooth="yes"/>
      <point x="332" y="715"/>
      <point x="196" y="602"/>
      <point x="174" y="433" type="curve"/>
      <point x="317" y="433" type="line"/>
      <point x="334" y="524"/>
      <point x="400" y="585"/>
      <point x="483" y="585" type="curve" smooth="yes"/>
      <point x="557" y="585"/>
      <point x="586" y="536"/>
      <point x="569" y="471" type="curve" smooth="yes"/>
      <point x="549" y="397"/>
      <point x="481" y="347"/>
      <point x="430" y="313" type="curve" smooth="yes"/>
      <point x="353" y="262"/>
      <point x="228" y="190"/>
    </contour>
  </outline>
</glyph>
<glyph name="three" format="2">
  <advance width="680"/>
  <unicode hex="0033"/>
  <outline>
    <contour>
      <point x="360" y="113" type="curve" smooth="yes"/>
      <point x="286" y="113"/>
      <point x="243" y="160"/>
      <point x="255" y="233" type="curve"/>
      <point x="107" y="213" type="line"/>
      <point x="63" y="75"/>
      <point x="151" y="-17"/>
      <point x="330" y="-17" type="curve" smooth="yes"/>
      <point x="491" y="-17"/>
      <point x="606" y="58"/>
      <point x="646" y="209" type="curve" smooth="yes"/>
      <point x="667" y="286"/>
      <point x="648" y="348"/>
      <point x="598" y="364" type="curve"/>
      <point x="655" y="389"/>
      <point x="702" y="446"/>
      <point x="721" y="516" type="curve" smooth="yes"/>
      <point x="756" y="645"/>
      <point x="662" y="717"/>
      <point x="528" y="717" type="curve" smooth="yes"/>
      <point x="395" y="717"/>
      <point x="257" y="631"/>
      <point x="185" y="503" type="curve"/>
      <point x="322" y="483" type="line"/>
      <point x="354" y="545"/>
      <point x="420" y="587"/>
      <point x="492" y="587" type="curve" smooth="yes"/>
      <point x="551" y="587"/>
      <point x="590" y="559"/>
      <point x="576" y="508" type="curve" smooth="yes"/>
      <point x="556" y="432"/>
      <point x="480" y="400"/>
      <point x="387" y="426" type="curve"/>
      <point x="353" y="299" type="line"/>
      <point x="464" y="325"/>
      <point x="526" y="292"/>
      <point x="505" y="215" type="curve" smooth="yes"/>
      <point x="487" y="148"/>
      <point x="424" y="113"/>
    </contour>
  </outline>
</glyph>
<glyph name="four" format="2">
  <advance width="690"/>
  <unicode hex="0034"/>
  <outline>
    <contour>
      <point x="58" y="120" type="line"/>
      <point x="438" y="120" type="line"/>
      <point x="406" y="0" type="line"/>
      <point x="549" y="0" type="line"/>
      <point x="581" y="120" type="line"/>
      <point x="672" y="120" type="line"/>
      <point x="707" y="250" type="line"/>
      <point x="616" y="250" type="line"/>
      <point x="736" y="699" type="line"/>
      <point x="554" y="699" type="line"/>
      <point x="93" y="250" type="line"/>
    </contour>
    <contour>
      <point x="473" y="250" type="line"/>
      <point x="252" y="250" type="line"/>
      <point x="551" y="542" type="line"/>
    </contour>
  </outline>
</glyph>
<glyph name="five" format="2">
  <advance width="650"/>
  <unicode hex="0035"/>
  <outline>
    <contour>
      <point x="363" y="114" type="curve" smooth="yes"/>
      <point x="300" y="114"/>
      <point x="263" y="155"/>
      <point x="273" y="217" type="curve"/>
      <point x="123" y="177" type="line"/>
      <point x="118" y="61"/>
      <point x="204" y="-17"/>
      <point x="342" y="-17" type="curve" smooth="yes"/>
      <point x="508" y="-17"/>
      <point x="619" y="95"/>
      <point x="660" y="248" type="curve" smooth="yes"/>
      <point x="704" y="413"/>
      <point x="636" y="508"/>
      <point x="500" y="508" type="curve" smooth="yes"/>
      <point x="444" y="508"/>
      <point x="389" y="491"/>
      <point x="362" y="466" type="curve"/>
      <point x="405" y="570" type="line"/>
      <point x="716" y="570" type="line"/>
      <point x="751" y="700" type="line"/>
      <point x="317" y="700" type="line"/>
      <point x="166" y="337" type="line"/>
      <point x="306" y="314" type="line"/>
      <point x="339" y="351"/>
      <point x="388" y="375"/>
      <point x="432" y="375" type="curve" smooth="yes"/>
      <point x="501" y="375"/>
      <point x="534" y="315"/>
      <point x="515" y="244" type="curve" smooth="yes"/>
      <point x="496" y="173"/>
      <point x="433" y="114"/>
    </contour>
  </outline>
</glyph>
<glyph name="six" format="2">
  <advance width="645"/>
  <unicode hex="0036"/>
  <outline>
    <contour>
      <point x="315.754" y="432" type="curve"/>
      <point x="335.673" y="525"/>
      <point x="405.018" y="586"/>
      <point x="480.018" y="586" type="curve" smooth="yes"/>
      <point x="531.018" y="586"/>
      <point x="568.516" y="558"/>
      <point x="572.994" y="515" type="curve"/>
      <point x="718.123" y="564" type="line"/>
      <point x="727.239" y="654"/>
      <point x="648.316" y="714"/>
      <point x="519.316" y="714" type="curve" smooth="yes"/>
      <point x="337.316" y="714"/>
      <point x="215.698" y="596"/>
      <point x="153.266" y="363" type="curve" smooth="yes"/>
      <point x="87.886" y="119"/>
      <point x="152.321" y="-10"/>
      <point x="337.321" y="-10" type="curve" smooth="yes"/>
      <point x="493.321" y="-10"/>
      <point x="603.972" y="82"/>
      <point x="645.772" y="238" type="curve" smooth="yes"/>
      <point x="689.448" y="401"/>
      <point x="618.955" y="485"/>
      <point x="490.955" y="485" type="curve" smooth="yes"/>
      <point x="426.955" y="485"/>
      <point x="357.328" y="464"/>
    </contour>
    <contour>
      <point x="423.462" y="360" type="curve" smooth="yes"/>
      <point x="491.462" y="360"/>
      <point x="520.725" y="305"/>
      <point x="503.576" y="241" type="curve" smooth="yes"/>
      <point x="486.695" y="178"/>
      <point x="429.154" y="120"/>
      <point x="361.154" y="120" type="curve" smooth="yes"/>
      <point x="293.154" y="120"/>
      <point x="258.963" y="179"/>
      <point x="276.112" y="243" type="curve" smooth="yes"/>
      <point x="293.26" y="307"/>
      <point x="356.462" y="360"/>
    </contour>
  </outline>
</glyph>
<glyph name="seven" format="2">
  <advance width="535"/>
  <unicode hex="0037"/>
  <outline>
    <contour>
      <point x="171" y="571" type="line"/>
      <point x="509" y="571" type="line"/>
      <point x="119" y="0" type="line"/>
      <point x="275" y="0" type="line"/>
      <point x="664" y="571" type="line"/>
      <point x="699" y="700" type="line"/>
      <point x="206" y="700" type="line"/>
    </contour>
  </outline>
</glyph>
<glyph name="eight" format="2">
  <advance width="690"/>
  <unicode hex="0038"/>
  <outline>
    <contour>
      <point x="676" y="202" type="curve" smooth="yes"/>
      <point x="695" y="273"/>
      <point x="672" y="337"/>
      <point x="619" y="362" type="curve"/>
      <point x="677" y="382"/>
      <point x="729" y="439"/>
      <point x="747" y="507" type="curve" smooth="yes"/>
      <point x="782" y="637"/>
      <point x="672" y="713"/>
      <point x="550" y="713" type="curve" smooth="yes"/>
      <point x="428" y="713"/>
      <point x="277" y="637"/>
      <point x="242" y="505" type="curve" smooth="yes"/>
      <point x="224" y="439"/>
      <point x="244" y="382"/>
      <point x="292" y="362" type="curve"/>
      <point x="225" y="337"/>
      <point x="169" y="273"/>
      <point x="148" y="194" type="curve" smooth="yes"/>
      <point x="110" y="52"/>
      <point x="221" y="-15"/>
      <point x="355" y="-15" type="curve" smooth="yes"/>
      <point x="489" y="-15"/>
      <point x="636" y="52"/>
    </contour>
    <contour>
      <point x="598" y="501" type="curve" smooth="yes"/>
      <point x="582" y="443"/>
      <point x="521" y="416"/>
      <point x="470" y="416" type="curve" smooth="yes"/>
      <point x="419" y="416"/>
      <point x="372" y="443"/>
      <point x="388" y="501" type="curve" smooth="yes"/>
      <point x="404" y="559"/>
      <point x="464" y="583"/>
      <point x="515" y="583" type="curve" smooth="yes"/>
      <point x="567" y="583"/>
      <point x="614" y="559"/>
    </contour>
    <contour>
      <point x="390" y="114" type="curve" smooth="yes"/>
      <point x="331" y="114"/>
      <point x="278" y="139"/>
      <point x="296" y="205" type="curve" smooth="yes"/>
      <point x="314" y="271"/>
      <point x="380" y="297"/>
      <point x="439" y="297" type="curve" smooth="yes"/>
      <point x="498" y="297"/>
      <point x="550" y="271"/>
      <point x="532" y="205" type="curve" smooth="yes"/>
      <point x="514" y="139"/>
      <point x="449" y="114"/>
    </contour>
  </outline>
</glyph>
<glyph name="question" format="2">
  <advance width="725"/>
  <unicode hex="003F"/>
  <outline>
    <contour>
      <point x="409" y="166" type="curve"/>
      <point x="542" y="166" type="line"/>
      <point x="553" y="197"/>
      <point x="595" y="238"/>
      <point x="644" y="268" type="curve" smooth="yes"/>
      <point x="723" y="316"/>
      <point x="779" y="391"/>
      <point x="799" y="467" type="curve" smooth="yes"/>
      <point x="835" y="603"/>
      <point x="750" y="709"/>
      <point x="620" y="709" type="curve" smooth="yes"/>
      <point x="487" y="709"/>
      <point x="363" y="612"/>
      <point x="312" y="466" type="curve"/>
      <point x="446" y="466" type="line"/>
      <point x="470" y="532"/>
      <point x="525" y="576"/>
      <point x="584" y="576" type="curve" smooth="yes"/>
      <point x="647" y="576"/>
      <point x="682" y="525"/>
      <point x="665" y="461" type="curve" smooth="yes"/>
      <point x="650" y="404"/>
      <point x="607" y="385"/>
      <point x="573" y="365" type="curve" smooth="yes"/>
      <point x="490" y="315"/>
      <point x="430" y="240"/>
    </contour>
    <contour>
      <point x="510" y="50" type="curve" smooth="yes"/>
      <point x="510" y="86"/>
      <point x="480" y="116"/>
      <point x="444" y="116" type="curve" smooth="yes"/>
      <point x="408" y="116"/>
      <point x="378" y="86"/>
      <point x="378" y="50" type="curve" smooth="yes"/>
      <point x="378" y="14"/>
      <point x="408" y="-18"/>
      <point x="444" y="-18" type="curve" smooth="yes"/>
      <point x="480" y="-18"/>
      <point x="510" y="14"/>
    </contour>
  </outline>
</glyph>
<glyph name="A" format="2">
  <advance width="755"/>
  <unicode hex="0041"/>
  <outline>
    <contour>
      <point x="729" y="700" type="line"/>
      <point x="707" y="676" type="line"/>
      <point x="676" y="700"/>
      <point x="622" y="720"/>
      <point x="547" y="720" type="curve" smooth="yes"/>
      <point x="340" y="719"/>
      <point x="145" y="534"/>
      <point x="145" y="257" type="curve" smooth="yes"/>
      <point x="145" y="109"/>
      <point x="219" y="-2"/>
      <point x="364" y="-2" type="curve" smooth="yes"/>
      <point x="441" y="-2"/>
      <point x="492" y="17"/>
      <point x="525" y="30" type="curve"/>
      <point x="547" y="1" type="line"/>
      <point x="670" y="1" type="line"/>
      <point x="670" y="1"/>
      <point x="658" y="30"/>
      <point x="661" y="57" type="curve"/>
      <point x="833" y="700" type="line"/>
    </contour>
    <contour>
      <point x="642" y="460" type="curve" smooth="yes"/>
      <point x="636" y="247"/>
      <point x="516" y="129"/>
      <point x="421" y="129" type="curve" smooth="yes"/>
      <point x="332" y="129"/>
      <point x="289" y="191"/>
      <point x="287" y="272" type="curve" smooth="yes"/>
      <point x="282" y="454"/>
      <point x="405" y="594"/>
      <point x="523" y="594" type="curve" smooth="yes"/>
      <point x="618" y="594"/>
      <point x="643" y="511"/>
    </contour>
  </outline>
</glyph>
<glyph name="B" format="2">
  <advance width="730"/>
  <unicode hex="0042"/>
  <outline>
    <contour>
      <point x="664" y="381" type="curve"/>
      <point x="716" y="407"/>
      <point x="761" y="461"/>
      <point x="775" y="515" type="curve" smooth="yes"/>
      <point x="801" y="613"/>
      <point x="726" y="699"/>
      <point x="628" y="699" type="curve" smooth="yes"/>
      <point x="299" y="699" type="line"/>
      <point x="112" y="0" type="line"/>
      <point x="455" y="0" type="line" smooth="yes"/>
      <point x="569" y="0"/>
      <point x="690" y="92"/>
      <point x="721" y="207" type="curve" smooth="yes"/>
      <point x="741" y="282"/>
      <point x="717" y="349"/>
    </contour>
    <contour>
      <point x="527" y="418" type="curve" smooth="yes"/>
      <point x="367" y="418" type="line"/>
      <point x="407" y="566" type="line"/>
      <point x="567" y="566" type="line" smooth="yes"/>
      <point x="608" y="566"/>
      <point x="632" y="534"/>
      <point x="621" y="493" type="curve" smooth="yes"/>
      <point x="610" y="452"/>
      <point x="567" y="418"/>
    </contour>
    <contour>
      <point x="505" y="308" type="line" smooth="yes"/>
      <point x="553" y="308"/>
      <point x="581" y="268"/>
      <point x="568" y="221" type="curve" smooth="yes"/>
      <point x="555" y="173"/>
      <point x="505" y="133"/>
      <point x="458" y="133" type="curve" smooth="yes"/>
      <point x="291" y="133" type="line"/>
      <point x="338" y="308" type="line"/>
    </contour>
  </outline>
</glyph>
<glyph name="C" format="2">
  <advance width="755"/>
  <unicode hex="0043"/>
  <outline>
    <contour>
      <point x="631" y="260" type="line"/>
      <point x="595" y="176"/>
      <point x="515" y="120"/>
      <point x="424" y="120" type="curve" smooth="yes"/>
      <point x="294" y="120"/>
      <point x="279" y="235"/>
      <point x="310" y="351" type="curve" smooth="yes"/>
      <point x="341" y="467"/>
      <point x="418" y="581"/>
      <point x="547" y="581" type="curve" smooth="yes"/>
      <point x="639" y="581"/>
      <point x="692" y="524"/>
      <point x="679" y="440" type="curve"/>
      <point x="837" y="497" type="line"/>
      <point x="850" y="629"/>
      <point x="751" y="716"/>
      <point x="593" y="716" type="curve" smooth="yes"/>
      <point x="387" y="716"/>
      <point x="214" y="566"/>
      <point x="156" y="350" type="curve" smooth="yes"/>
      <point x="98" y="134"/>
      <point x="190" y="-16"/>
      <point x="396" y="-16" type="curve" smooth="yes"/>
      <point x="554" y="-16"/>
      <point x="699" y="71"/>
      <point x="758" y="203" type="curve"/>
    </contour>
  </outline>
</glyph>
<glyph name="D" format="2">
  <advance width="750"/>
  <unicode hex="0044"/>
  <outline>
    <contour>
      <point x="418" y="140" type="curve" smooth="yes"/>
      <point x="295" y="140" type="line"/>
      <point x="407" y="560" type="line"/>
      <point x="530" y="560" type="line" smooth="yes"/>
      <point x="648" y="560"/>
      <point x="674" y="460"/>
      <point x="646" y="355" type="curve" smooth="yes"/>
      <point x="618" y="250"/>
      <point x="536" y="140"/>
    </contour>
    <contour>
      <point x="378" y="0" type="line" smooth="yes"/>
      <point x="565" y="0"/>
      <point x="733" y="143"/>
      <point x="788" y="350" type="curve" smooth="yes"/>
      <point x="843" y="557"/>
      <point x="753" y="700"/>
      <point x="566" y="700" type="curve" smooth="yes"/>
      <point x="302" y="700" type="line"/>
      <point x="114" y="0" type="line"/>
    </contour>
  </outline>
</glyph>
<glyph name="E" format="2">
  <advance width="680"/>
  <unicode hex="0045"/>
  <anchor x="544" y="730" name="top"/>
  <outline>
    <contour>
      <point x="633" y="136" type="line"/>
      <point x="290" y="136" type="line"/>
      <point x="332" y="290" type="line"/>
      <point x="619" y="290" type="line"/>
      <point x="654" y="420" type="line"/>
      <point x="367" y="420" type="line"/>
      <point x="405" y="563" type="line"/>
      <point x="722" y="563" type="line"/>
      <point x="758" y="699" type="line"/>
      <point x="298" y="699" type="line"/>
      <point x="111" y="0" type="line"/>
      <point x="597" y="0" type="line"/>
    </contour>
  </outline>
</glyph>
<glyph name="F" format="2">
  <advance width="605"/>
  <unicode hex="0046"/>
  <outline>
    <contour>
      <point x="255" y="0" type="line"/>
      <point x="333" y="290" type="line"/>
      <point x="619" y="290" type="line"/>
      <point x="654" y="420" type="line"/>
      <point x="368" y="420" type="line"/>
      <point x="406" y="563" type="line"/>
      <point x="722" y="563" type="line"/>
      <point x="758" y="699" type="line"/>
      <point x="299" y="699" type="line"/>
      <point x="112" y="0" type="line"/>
    </contour>
  </outline>
</glyph>
<glyph name="G" format="2">
  <advance width="780"/>
  <unicode hex="0047"/>
  <outline>
    <contour>
      <point x="310" y="350" type="curve" smooth="yes"/>
      <point x="341" y="467"/>
      <point x="416" y="580"/>
      <point x="543" y="580" type="curve" smooth="yes"/>
      <point x="616" y="580"/>
      <point x="670" y="539"/>
      <point x="678" y="479" type="curve"/>
      <point x="829" y="543" type="line"/>
      <point x="809" y="648"/>
      <point x="717" y="717"/>
      <point x="582" y="717" type="curve" smooth="yes"/>
      <point x="386" y="717"/>
      <point x="214" y="569"/>
      <point x="157" y="356" type="curve" smooth="yes"/>
      <point x="99" y="140"/>
      <point x="192" y="-17"/>
      <point x="386" y="-17" type="curve" smooth="yes"/>
      <point x="441" y="-17"/>
      <point x="514" y="10"/>
      <point x="569" y="50" type="curve"/>
      <point x="556" y="0" type="line"/>
      <point x="687" y="0" type="line"/>
      <point x="795" y="403" type="line"/>
      <point x="488" y="403" type="line"/>
      <point x="455" y="280" type="line"/>
      <point x="631" y="280" type="line"/>
      <point x="599" y="184"/>
      <point x="518" y="119"/>
      <point x="422" y="119" type="curve" smooth="yes"/>
      <point x="294" y="119"/>
      <point x="279" y="233"/>
    </contour>
  </outline>
</glyph>
<glyph name="H" format="2">
  <advance width="795"/>
  <unicode hex="0048"/>
  <outline>
    <contour>
      <point x="659" y="433" type="line"/>
      <point x="376" y="433" type="line"/>
      <point x="448" y="700" type="line"/>
      <point x="305" y="700" type="line"/>
      <point x="117" y="0" type="line"/>
      <point x="260" y="0" type="line"/>
      <point x="339" y="296" type="line"/>
      <point x="622" y="296" type="line"/>
      <point x="543" y="0" type="line"/>
      <point x="686" y="0" type="line"/>
      <point x="874" y="700" type="line"/>
      <point x="731" y="700" type="line"/>
    </contour>
  </outline>
</glyph>
<glyph name="I" format="2">
  <advance width="365"/>
  <unicode hex="0049"/>
  <outline>
    <contour>
      <point x="452" y="700" type="line"/>
      <point x="309" y="700" type="line"/>
      <point x="121" y="0" type="line"/>
      <point x="264" y="0" type="line"/>
    </contour>
  </outline>
</glyph>
<glyph name="J" format="2">
  <advance width="475"/>
  <unicode hex="004A"/>
  <outline>
    <contour>
      <point x="20" y="0" type="line"/>
      <point x="47" y="-7"/>
      <point x="88" y="-13"/>
      <point x="128" y="-13" type="curve" smooth="yes"/>
      <point x="236" y="-13"/>
      <point x="372" y="23"/>
      <point x="409" y="160" type="curve" smooth="yes"/>
      <point x="554" y="700" type="line"/>
      <point x="411" y="700" type="line"/>
      <point x="272" y="184" type="line" smooth="yes"/>
      <point x="258" y="130"/>
      <point x="198" y="131"/>
      <point x="181" y="131" type="curve" smooth="yes"/>
      <point x="145" y="131"/>
      <point x="119" y="132"/>
      <point x="116" y="135" type="curve"/>
    </contour>
  </outline>
</glyph>
<glyph name="K" format="2">
  <advance width="690"/>
  <unicode hex="004B"/>
  <outline>
    <contour>
      <point x="325" y="243" type="line"/>
      <point x="403" y="310" type="line"/>
      <point x="516" y="0" type="line"/>
      <point x="686" y="0" type="line"/>
      <point x="532" y="421" type="line"/>
      <point x="860" y="700" type="line"/>
      <point x="667" y="700" type="line"/>
      <point x="382" y="457" type="line"/>
      <point x="448" y="700" type="line"/>
      <point x="305" y="700" type="line"/>
      <point x="117" y="0" type="line"/>
      <point x="260" y="0" type="line"/>
    </contour>
  </outline>
</glyph>
<glyph name="L" format="2">
  <advance width="590"/>
  <unicode hex="004C"/>
  <outline>
    <contour>
      <point x="301" y="700" type="line"/>
      <point x="113" y="0" type="line"/>
      <point x="567" y="0" type="line"/>
      <point x="604" y="137" type="line"/>
      <point x="293" y="137" type="line"/>
      <point x="444" y="700" type="line"/>
    </contour>
  </outline>
</glyph>
<glyph name="M" format="2">
  <advance width="940"/>
  <unicode hex="004D"/>
  <outline>
    <contour>
      <point x="317" y="698" type="line"/>
      <point x="130" y="-2" type="line"/>
      <point x="273" y="-2" type="line"/>
      <point x="412" y="506" type="line" smooth="yes"/>
      <point x="420" y="536"/>
      <point x="449" y="560"/>
      <point x="498" y="561" type="curve" smooth="yes"/>
      <point x="537" y="562"/>
      <point x="549" y="538"/>
      <point x="541" y="506" type="curve" smooth="yes"/>
      <point x="407" y="-2" type="line"/>
      <point x="550" y="-2" type="line"/>
      <point x="684" y="506" type="line" smooth="yes"/>
      <point x="691" y="533"/>
      <point x="733" y="561"/>
      <point x="779" y="561" type="curve" smooth="yes"/>
      <point x="825" y="561"/>
      <point x="831" y="535"/>
      <point x="823" y="506" type="curve" smooth="yes"/>
      <point x="684" y="-2" type="line"/>
      <point x="827" y="-2" type="line"/>
      <point x="980" y="561" type="line" smooth="yes"/>
      <point x="1002" y="643"/>
      <point x="958" y="703"/>
      <point x="874" y="703" type="curve" smooth="yes"/>
      <point x="777" y="703"/>
      <point x="747" y="670"/>
      <point x="705" y="629" type="curve"/>
      <point x="701" y="672"/>
      <point x="653" y="703"/>
      <point x="602" y="703" type="curve" smooth="yes"/>
      <point x="551" y="703"/>
      <point x="481" y="676"/>
      <point x="437" y="643" type="curve"/>
      <point x="454" y="698" type="line"/>
    </contour>
  </outline>
</glyph>
<glyph name="N" format="2">
  <advance width="850"/>
  <unicode hex="004E"/>
  <outline>
    <contour>
      <point x="309" y="700" type="line"/>
      <point x="309" y="605" type="line"/>
      <point x="146" y="0" type="line"/>
      <point x="289" y="0" type="line"/>
      <point x="415" y="480" type="line" smooth="yes"/>
      <point x="427" y="524"/>
      <point x="507" y="574"/>
      <point x="573" y="574" type="curve" smooth="yes"/>
      <point x="659" y="574"/>
      <point x="677" y="523"/>
      <point x="666" y="480" type="curve"/>
      <point x="539" y="0" type="line"/>
      <point x="682" y="0" type="line"/>
      <point x="825" y="543" type="line" smooth="yes"/>
      <point x="843" y="611"/>
      <point x="795" y="714"/>
      <point x="664" y="714" type="curve" smooth="yes"/>
      <point x="578" y="714"/>
      <point x="510" y="680"/>
      <point x="469" y="637" type="curve"/>
      <point x="437" y="700" type="line"/>
    </contour>
  </outline>
</glyph>
<glyph name="O" format="2">
  <advance width="790"/>
  <unicode hex="004F"/>
  <outline>
    <contour>
      <point x="824" y="350" type="curve" smooth="yes"/>
      <point x="882" y="565"/>
      <point x="784" y="717"/>
      <point x="591" y="717" type="curve" smooth="yes"/>
      <point x="392" y="717"/>
      <point x="210" y="555"/>
      <point x="154" y="345" type="curve" smooth="yes"/>
      <point x="98" y="135"/>
      <point x="195" y="-17"/>
      <point x="391" y="-17" type="curve" smooth="yes"/>
      <point x="587" y="-17"/>
      <point x="766" y="135"/>
    </contour>
    <contour>
      <point x="551" y="580" type="curve" smooth="yes"/>
      <point x="685" y="580"/>
      <point x="701" y="467"/>
      <point x="670" y="350" type="curve" smooth="yes"/>
      <point x="638" y="232"/>
      <point x="562" y="119"/>
      <point x="428" y="119" type="curve" smooth="yes"/>
      <point x="294" y="119"/>
      <point x="278" y="232"/>
      <point x="310" y="350" type="curve" smooth="yes"/>
      <point x="341" y="467"/>
      <point x="417" y="580"/>
    </contour>
  </outline>
</glyph>
<glyph name="P" format="2">
  <advance width="670"/>
  <unicode hex="0050"/>
  <outline>
    <contour>
      <point x="605" y="700" type="curve" smooth="yes"/>
      <point x="303" y="700" type="line"/>
      <point x="115" y="0" type="line"/>
      <point x="258" y="0" type="line"/>
      <point x="324" y="246" type="line"/>
      <point x="483" y="246" type="line" smooth="yes"/>
      <point x="605" y="246"/>
      <point x="730" y="352"/>
      <point x="762" y="472" type="curve" smooth="yes"/>
      <point x="794" y="592"/>
      <point x="727" y="700"/>
    </contour>
    <contour>
      <point x="359" y="376" type="line"/>
      <point x="411" y="570" type="line"/>
      <point x="553" y="570" type="line" smooth="yes"/>
      <point x="610" y="570"/>
      <point x="635" y="532"/>
      <point x="619" y="472" type="curve" smooth="yes"/>
      <point x="603" y="412"/>
      <point x="558" y="376"/>
      <point x="501" y="376" type="curve" smooth="yes"/>
    </contour>
  </outline>
</glyph>
<glyph name="Q" format="2">
  <advance width="805"/>
  <unicode hex="0051"/>
  <outline>
    <contour>
      <point x="836" y="350" type="curve" smooth="yes"/>
      <point x="894" y="565"/>
      <point x="805" y="717"/>
      <point x="599" y="717" type="curve" smooth="yes"/>
      <point x="386" y="717"/>
      <point x="210" y="555"/>
      <point x="154" y="345" type="curve" smooth="yes"/>
      <point x="98" y="135"/>
      <point x="188" y="-17"/>
      <point x="398" y="-17" type="curve" smooth="yes"/>
      <point x="608" y="-17"/>
      <point x="778" y="135"/>
    </contour>
    <contour>
      <point x="557" y="580" type="curve" smooth="yes"/>
      <point x="696" y="580"/>
      <point x="713" y="467"/>
      <point x="682" y="350" type="curve" smooth="yes"/>
      <point x="651" y="233"/>
      <point x="573" y="119"/>
      <point x="434" y="119" type="curve" smooth="yes"/>
      <point x="295" y="119"/>
      <point x="278" y="232"/>
      <point x="310" y="350" type="curve" smooth="yes"/>
      <point x="341" y="467"/>
      <point x="418" y="580"/>
    </contour>
    <contour>
      <point x="549" y="253" type="line"/>
      <point x="421" y="196" type="line"/>
      <point x="487" y="-90" type="line"/>
      <point x="638" y="-23" type="line"/>
    </contour>
  </outline>
</glyph>
<glyph name="R" format="2">
  <advance width="740"/>
  <unicode hex="0052"/>
  <outline>
    <contour>
      <point x="301" y="700" type="line"/>
      <point x="113" y="0" type="line"/>
      <point x="256" y="0" type="line"/>
      <point x="329" y="272" type="line"/>
      <point x="423" y="272" type="line"/>
      <point x="509" y="0" type="line"/>
      <point x="676" y="0" type="line"/>
      <point x="584" y="285" type="line"/>
      <point x="677" y="315"/>
      <point x="755" y="396"/>
      <point x="779" y="486" type="curve" smooth="yes"/>
      <point x="810" y="602"/>
      <point x="744" y="700"/>
      <point x="624" y="700" type="curve" smooth="yes"/>
    </contour>
    <contour>
      <point x="409" y="571" type="line"/>
      <point x="576" y="571" type="line" smooth="yes"/>
      <point x="621" y="571"/>
      <point x="649" y="532"/>
      <point x="637" y="487" type="curve" smooth="yes"/>
      <point x="625" y="442"/>
      <point x="576" y="403"/>
      <point x="531" y="403" type="curve" smooth="yes"/>
      <point x="364" y="403" type="line"/>
    </contour>
  </outline>
</glyph>
<glyph name="S" format="2">
  <advance width="730"/>
  <unicode hex="0053"/>
  <outline>
    <contour>
      <point x="244" y="497" type="curve" smooth="yes"/>
      <point x="218" y="400"/>
      <point x="259" y="328"/>
      <point x="351" y="306" type="curve" smooth="yes"/>
      <point x="506" y="269" type="line" smooth="yes"/>
      <point x="538" y="261"/>
      <point x="550" y="229"/>
      <point x="542" y="201" type="curve" smooth="yes"/>
      <point x="529" y="154"/>
      <point x="469" y="120"/>
      <point x="393" y="119" type="curve" smooth="yes"/>
      <point x="328" y="118"/>
      <point x="259" y="157"/>
      <point x="220" y="214" type="curve"/>
      <point x="73" y="120" type="line"/>
      <point x="110" y="37"/>
      <point x="223" y="-18"/>
      <point x="360" y="-18" type="curve" smooth="yes"/>
      <point x="533" y="-18"/>
      <point x="668" y="70"/>
      <point x="705" y="208" type="curve" smooth="yes"/>
      <point x="737" y="328"/>
      <point x="679" y="382"/>
      <point x="585" y="407" type="curve" smooth="yes"/>
      <point x="453" y="443" type="line"/>
      <point x="417" y="447"/>
      <point x="399" y="471"/>
      <point x="408" y="503" type="curve" smooth="yes"/>
      <point x="421" y="552"/>
      <point x="485" y="577"/>
      <point x="538" y="577" type="curve" smooth="yes"/>
      <point x="592" y="577"/>
      <point x="654" y="549"/>
      <point x="692" y="506" type="curve"/>
      <point x="826" y="605" type="line"/>
      <point x="779" y="673"/>
      <point x="680" y="717"/>
      <point x="577" y="717" type="curve" smooth="yes"/>
      <point x="447" y="717"/>
      <point x="284" y="646"/>
    </contour>
  </outline>
</glyph>
<glyph name="T" format="2">
  <advance width="590"/>
  <unicode hex="0054"/>
  <outline>
    <contour>
      <point x="212" y="700" type="line"/>
      <point x="175" y="563" type="line"/>
      <point x="374" y="563" type="line"/>
      <point x="223" y="0" type="line"/>
      <point x="366" y="0" type="line"/>
      <point x="517" y="563" type="line"/>
      <point x="716" y="563" type="line"/>
      <point x="753" y="700" type="line"/>
    </contour>
  </outline>
</glyph>
<glyph name="U" format="2">
  <advance width="785"/>
  <unicode hex="0055"/>
  <anchor x="576" y="730" name="top"/>
  <outline>
    <contour>
      <point x="433" y="700" type="line"/>
      <point x="290" y="700" type="line"/>
      <point x="175" y="274" type="line" smooth="yes"/>
      <point x="132" y="115"/>
      <point x="229" y="-16"/>
      <point x="389" y="-16" type="curve" smooth="yes"/>
      <point x="549" y="-16"/>
      <point x="712" y="114"/>
      <point x="755" y="274" type="curve" smooth="yes"/>
      <point x="870" y="700" type="line"/>
      <point x="727" y="700" type="line"/>
      <point x="612" y="274" type="line" smooth="yes"/>
      <point x="590" y="193"/>
      <point x="508" y="127"/>
      <point x="427" y="127" type="curve" smooth="yes"/>
      <point x="346" y="127"/>
      <point x="297" y="194"/>
      <point x="318" y="274" type="curve" smooth="yes"/>
    </contour>
  </outline>
</glyph>
<glyph name="V" format="2">
  <advance width="665"/>
  <unicode hex="0056"/>
  <outline>
    <contour>
      <point x="368" y="700" type="line"/>
      <point x="218" y="700" type="line"/>
      <point x="230" y="0" type="line"/>
      <point x="430" y="0" type="line"/>
      <point x="818" y="700" type="line"/>
      <point x="668" y="700" type="line"/>
      <point x="376" y="171" type="line"/>
    </contour>
  </outline>
</glyph>
<glyph name="W" format="2">
  <advance width="965"/>
  <unicode hex="0057"/>
  <outline>
    <contour>
      <point x="396" y="0" type="line"/>
      <point x="625" y="480" type="line"/>
      <point x="596" y="0" type="line"/>
      <point x="776" y="0" type="line"/>
      <point x="1127" y="700" type="line"/>
      <point x="979" y="700" type="line"/>
      <point x="738" y="219" type="line"/>
      <point x="767" y="700" type="line"/>
      <point x="600" y="700" type="line"/>
      <point x="371" y="219" type="line"/>
      <point x="388" y="700" type="line"/>
      <point x="240" y="700" type="line"/>
      <point x="216" y="0" type="line"/>
    </contour>
  </outline>
</glyph>
<glyph name="X" format="2">
  <advance width="650"/>
  <unicode hex="0058"/>
  <outline>
    <contour>
      <point x="390" y="232" type="line"/>
      <point x="471" y="0" type="line"/>
      <point x="640" y="0" type="line"/>
      <point x="511" y="369" type="line"/>
      <point x="804" y="700" type="line"/>
      <point x="636" y="700" type="line"/>
      <point x="463" y="505" type="line"/>
      <point x="396" y="700" type="line"/>
      <point x="227" y="700" type="line"/>
      <point x="343" y="369" type="line"/>
      <point x="16" y="0" type="line"/>
      <point x="185" y="0" type="line"/>
    </contour>
  </outline>
</glyph>
<glyph name="Y" format="2">
  <advance width="640"/>
  <unicode hex="0059"/>
  <outline>
    <contour>
      <point x="322" y="276" type="line"/>
      <point x="248" y="0" type="line"/>
      <point x="391" y="0" type="line"/>
      <point x="465" y="276" type="line"/>
      <point x="815" y="699" type="line"/>
      <point x="651" y="699" type="line"/>
      <point x="440" y="443" type="line"/>
      <point x="365" y="699" type="line"/>
      <point x="201" y="699" type="line"/>
    </contour>
  </outline>
</glyph>
<glyph name="Z" format="2">
  <advance width="595"/>
  <unicode hex="005A"/>
  <outline>
    <contour>
      <point x="199" y="556" type="line"/>
      <point x="502" y="556" type="line"/>
      <point x="75" y="143" type="line"/>
      <point x="37" y="0" type="line"/>
      <point x="543" y="0" type="line"/>
      <point x="581" y="143" type="line"/>
      <point x="256" y="143" type="line"/>
      <point x="682" y="556" type="line"/>
      <point x="720" y="699" type="line"/>
      <point x="237" y="699" type="line"/>
    </contour>
  </outline>
</glyph>
<glyph name="a" format="2">
  <advance width="555"/>
  <unicode hex="0061"/>
  <outline>
    <contour>
      <point x="627" y="500" type="line"/>
      <point x="525" y="500" type="line"/>
      <point x="518" y="481" type="line"/>
      <point x="482" y="502"/>
      <point x="464" y="511"/>
      <point x="396" y="511" type="curve" smooth="yes"/>
      <point x="322" y="511"/>
      <point x="131.218" y="441.991"/>
      <point x="120" y="174" type="curve" smooth="yes"/>
      <point x="113.218" y="11.9907"/>
      <point x="250" y="1.13687e-13"/>
      <point x="284" y="1.13687e-13" type="curve" smooth="yes"/>
      <point x="318" y="1.13687e-13"/>
      <point x="355" y="9"/>
      <point x="384" y="20" type="curve"/>
      <point x="420" y="1.13687e-13" type="line"/>
      <point x="513" y="1.13687e-13" type="line"/>
      <point x="504" y="47" type="line"/>
    </contour>
    <contour>
      <point x="399" y="389" type="curve" smooth="yes"/>
      <point x="431" y="389"/>
      <point x="467" y="365"/>
      <point x="467" y="306" type="curve" smooth="yes"/>
      <point x="467" y="182"/>
      <point x="388" y="111"/>
      <point x="328" y="111" type="curve" smooth="yes"/>
      <point x="268" y="111"/>
      <point x="252" y="147"/>
      <point x="252" y="213" type="curve" smooth="yes"/>
      <point x="252" y="269"/>
      <point x="297" y="389"/>
    </contour>
  </outline>
</glyph>
<glyph name="b" format="2">
  <advance width="610"/>
  <unicode hex="0062"/>
  <outline>
    <contour>
      <point x="630" y="255" type="curve" smooth="yes"/>
      <point x="673" y="417"/>
      <point x="614" y="520"/>
      <point x="478" y="520" type="curve" smooth="yes"/>
      <point x="422" y="520"/>
      <point x="362" y="502"/>
      <point x="330" y="476" type="curve"/>
      <point x="390" y="700" type="line"/>
      <point x="253" y="700" type="line"/>
      <point x="65" y="0" type="line"/>
      <point x="202" y="0" type="line"/>
      <point x="211" y="34" type="line"/>
      <point x="231" y="5"/>
      <point x="280" y="-13"/>
      <point x="336" y="-13" type="curve" smooth="yes"/>
      <point x="465" y="-13"/>
      <point x="585" y="87"/>
    </contour>
    <contour>
      <point x="422" y="399" type="curve" smooth="yes"/>
      <point x="499" y="399"/>
      <point x="514" y="330"/>
      <point x="493" y="253" type="curve" smooth="yes"/>
      <point x="472" y="173"/>
      <point x="418" y="107"/>
      <point x="345" y="107" type="curve" smooth="yes"/>
      <point x="282" y="107"/>
      <point x="244" y="155"/>
      <point x="256" y="201" type="curve" smooth="yes"/>
      <point x="285" y="309" type="line" smooth="yes"/>
      <point x="297" y="353"/>
      <point x="359" y="399"/>
    </contour>
  </outline>
</glyph>
<glyph name="c" format="2">
  <advance width="535"/>
  <unicode hex="0063"/>
  <outline>
    <contour>
      <point x="537" y="142" type="curve"/>
      <point x="424" y="193" type="line"/>
      <point x="405" y="137"/>
      <point x="355" y="100"/>
      <point x="303" y="100" type="curve" smooth="yes"/>
      <point x="225" y="100"/>
      <point x="218" y="182"/>
      <point x="235" y="247" type="curve" smooth="yes"/>
      <point x="252" y="312"/>
      <point x="306" y="400"/>
      <point x="384" y="400" type="curve" smooth="yes"/>
      <point x="435" y="400"/>
      <point x="464" y="363"/>
      <point x="453" y="307" type="curve"/>
      <point x="595" y="358" type="line"/>
      <point x="600" y="455"/>
      <point x="528" y="520"/>
      <point x="415" y="520" type="curve" smooth="yes"/>
      <point x="258" y="520"/>
      <point x="138" y="394"/>
      <point x="99" y="249" type="curve" smooth="yes"/>
      <point x="60" y="104"/>
      <point x="115" y="-20"/>
      <point x="271" y="-20" type="curve" smooth="yes"/>
      <point x="384" y="-20"/>
      <point x="491" y="45"/>
    </contour>
  </outline>
</glyph>
<glyph name="d" format="2">
  <advance width="595"/>
  <unicode hex="0064"/>
  <outline>
    <contour>
      <point x="96" y="255" type="curve" smooth="yes"/>
      <point x="51" y="87"/>
      <point x="118" y="-13"/>
      <point x="247" y="-13" type="curve" smooth="yes"/>
      <point x="303" y="-13"/>
      <point x="360" y="5"/>
      <point x="396" y="34" type="curve"/>
      <point x="387" y="0" type="line"/>
      <point x="525" y="0" type="line"/>
      <point x="713" y="700" type="line"/>
      <point x="575" y="700" type="line"/>
      <point x="515" y="476" type="line"/>
      <point x="497" y="502"/>
      <point x="446" y="520"/>
      <point x="390" y="520" type="curve" smooth="yes"/>
      <point x="254" y="520"/>
      <point x="139" y="417"/>
    </contour>
    <contour>
      <point x="382" y="399" type="curve" smooth="yes"/>
      <point x="445" y="399"/>
      <point x="482" y="353"/>
      <point x="470" y="309" type="curve" smooth="yes"/>
      <point x="441" y="201" type="line" smooth="yes"/>
      <point x="429" y="155"/>
      <point x="366" y="107"/>
      <point x="303" y="107" type="curve" smooth="yes"/>
      <point x="230" y="107"/>
      <point x="211" y="173"/>
      <point x="232" y="253" type="curve" smooth="yes"/>
      <point x="253" y="330"/>
      <point x="305" y="399"/>
    </contour>
  </outline>
</glyph>
<glyph name="e" format="2">
  <advance width="550"/>
  <unicode hex="0065"/>
  <anchor x="364" y="530" name="top"/>
  <outline>
    <contour>
      <point x="444" y="156" type="line"/>
      <point x="410" y="126"/>
      <point x="356" y="105"/>
      <point x="313" y="105" type="curve" smooth="yes"/>
      <point x="252" y="105"/>
      <point x="219" y="145"/>
      <point x="225" y="205" type="curve"/>
      <point x="558" y="205" type="line"/>
      <point x="614" y="390"/>
      <point x="552" y="514"/>
      <point x="407" y="514" type="curve" smooth="yes"/>
      <point x="270" y="514"/>
      <point x="144" y="403"/>
      <point x="104" y="253" type="curve" smooth="yes"/>
      <point x="64" y="103"/>
      <point x="129" y="-14"/>
      <point x="270" y="-14" type="curve" smooth="yes"/>
      <point x="346" y="-14"/>
      <point x="433" y="20"/>
      <point x="505" y="70" type="curve"/>
    </contour>
    <contour>
      <point x="252" y="307" type="line"/>
      <point x="274" y="363"/>
      <point x="324" y="400"/>
      <point x="377" y="400" type="curve" smooth="yes"/>
      <point x="430" y="400"/>
      <point x="462" y="363"/>
      <point x="455" y="307" type="curve"/>
    </contour>
  </outline>
</glyph>
<glyph name="f" format="2">
  <advance width="395"/>
  <unicode hex="0066"/>
  <outline>
    <contour>
      <point x="243" y="0" type="line"/>
      <point x="348" y="391" type="line"/>
      <point x="445" y="391" type="line"/>
      <point x="475" y="504" type="line"/>
      <point x="378" y="504" type="line"/>
      <point x="378" y="552"/>
      <point x="412" y="583"/>
      <point x="470" y="583" type="curve" smooth="yes"/>
      <point x="482" y="583"/>
      <point x="497" y="581"/>
      <point x="503" y="579" type="curve"/>
      <point x="558" y="690" type="line"/>
      <point x="516" y="698"/>
      <point x="469" y="704"/>
      <point x="439" y="704" type="curve" smooth="yes"/>
      <point x="349" y="704"/>
      <point x="281" y="652"/>
      <point x="261" y="577" type="curve" smooth="yes"/>
      <point x="241" y="504" type="line"/>
      <point x="161" y="504" type="line"/>
      <point x="131" y="391" type="line"/>
      <point x="211" y="391" type="line"/>
      <point x="106" y="0" type="line"/>
    </contour>
  </outline>
</glyph>
<glyph name="g" format="2">
  <advance width="585"/>
  <unicode hex="0067"/>
  <outline>
    <contour>
      <point x="379" y="27" type="line" smooth="yes"/>
      <point x="365" y="-24"/>
      <point x="315" y="-41"/>
      <point x="262" y="-41" type="curve" smooth="yes"/>
      <point x="207" y="-41"/>
      <point x="147" y="-23"/>
      <point x="103" y="5" type="curve"/>
      <point x="9" y="-105" type="line"/>
      <point x="55" y="-141"/>
      <point x="141" y="-165"/>
      <point x="223" y="-165" type="curve" smooth="yes"/>
      <point x="353" y="-165"/>
      <point x="479" y="-105"/>
      <point x="512" y="19" type="curve" smooth="yes"/>
      <point x="641" y="500" type="line"/>
      <point x="506" y="500" type="line"/>
      <point x="499" y="474" type="line"/>
      <point x="467" y="494"/>
      <point x="420" y="507"/>
      <point x="377" y="507" type="curve" smooth="yes"/>
      <point x="251" y="507"/>
      <point x="136" y="395"/>
      <point x="101" y="263" type="curve" smooth="yes"/>
      <point x="64" y="126"/>
      <point x="128" y="25"/>
      <point x="261" y="25" type="curve" smooth="yes"/>
      <point x="306" y="25"/>
      <point x="355" y="37"/>
      <point x="386" y="54" type="curve"/>
    </contour>
    <contour>
      <point x="453" y="303" type="curve" smooth="yes"/>
      <point x="435" y="236" type="line" smooth="yes"/>
      <point x="419" y="178"/>
      <point x="361" y="147"/>
      <point x="311" y="147" type="curve" smooth="yes"/>
      <point x="243" y="147"/>
      <point x="222" y="203"/>
      <point x="239" y="266" type="curve" smooth="yes"/>
      <point x="256" y="328"/>
      <point x="306" y="388"/>
      <point x="373" y="388" type="curve" smooth="yes"/>
      <point x="426" y="388"/>
      <point x="466" y="351"/>
    </contour>
  </outline>
</glyph>
<glyph name="h" format="2">
  <advance width="595"/>
  <unicode hex="0068"/>
  <outline>
    <contour>
      <point x="383" y="0" type="line"/>
      <point x="520" y="0" type="line"/>
      <point x="383" y="0" type="line"/>
      <point x="520" y="0" type="line"/>
      <point x="600" y="299" type="line" smooth="yes"/>
      <point x="633" y="424"/>
      <point x="577" y="512"/>
      <point x="466" y="512" type="curve" smooth="yes"/>
      <point x="413" y="512"/>
      <point x="358" y="492"/>
      <point x="324" y="462" type="curve"/>
      <point x="388" y="700" type="line"/>
      <point x="251" y="700" type="line"/>
      <point x="63" y="0" type="line"/>
      <point x="200" y="0" type="line"/>
      <point x="280" y="298" type="line" smooth="yes"/>
      <point x="295" y="355"/>
      <point x="357" y="387"/>
      <point x="405" y="387" type="curve" smooth="yes"/>
      <point x="462" y="387"/>
      <point x="475" y="342"/>
      <point x="463" y="298" type="curve" smooth="yes"/>
    </contour>
  </outline>
</glyph>
<glyph name="i" format="2">
  <advance width="275"/>
  <unicode hex="0069"/>
  <outline>
    <component base="dotlessi" xOffset="-40"/>
    <contour>
      <point x="333" y="628" type="curve" smooth="yes"/>
      <point x="333" y="671"/>
      <point x="299" y="705"/>
      <point x="256" y="705" type="curve" smooth="yes"/>
      <point x="213" y="705"/>
      <point x="177" y="670"/>
      <point x="177" y="627" type="curve" smooth="yes"/>
      <point x="177" y="584"/>
      <point x="212" y="549"/>
      <point x="255" y="549" type="curve" smooth="yes"/>
      <point x="298" y="549"/>
      <point x="333" y="585"/>
    </contour>
  </outline>
</glyph>
<glyph name="j" format="2">
  <advance width="355"/>
  <unicode hex="006A"/>
  <outline>
    <contour>
      <point x="39" y="-41" type="curve"/>
      <point x="-25" y="-153" type="line"/>
      <point x="0" y="-161"/>
      <point x="40" y="-168"/>
      <point x="78" y="-168" type="curve" smooth="yes"/>
      <point x="147" y="-168"/>
      <point x="236" y="-149"/>
      <point x="260" y="-60" type="curve" smooth="yes"/>
      <point x="410" y="500" type="line"/>
      <point x="273" y="500" type="line"/>
      <point x="136" y="-11" type="line"/>
      <point x="123" y="-32"/>
      <point x="102" y="-46"/>
      <point x="77" y="-46" type="curve" smooth="yes"/>
      <point x="67" y="-46"/>
      <point x="50" y="-44"/>
    </contour>
    <contour>
      <point x="453" y="628" type="curve" smooth="yes"/>
      <point x="453" y="671"/>
      <point x="419" y="705"/>
      <point x="376" y="705" type="curve" smooth="yes"/>
      <point x="333" y="705"/>
      <point x="297" y="670"/>
      <point x="297" y="627" type="curve" smooth="yes"/>
      <point x="297" y="584"/>
      <point x="332" y="549"/>
      <point x="375" y="549" type="curve" smooth="yes"/>
      <point x="418" y="549"/>
      <point x="453" y="585"/>
    </contour>
  </outline>
</glyph>
<glyph name="k" format="2">
  <advance width="570"/>
  <unicode hex="006B"/>
  <outline>
    <contour>
      <point x="376" y="0" type="line"/>
      <point x="537" y="0" type="line"/>
      <point x="430" y="294" type="line"/>
      <point x="688" y="500" type="line"/>
      <point x="506" y="500" type="line"/>
      <point x="285" y="325" type="line"/>
      <point x="386" y="700" type="line"/>
      <point x="249" y="700" type="line"/>
      <point x="61" y="0" type="line"/>
      <point x="198" y="0" type="line"/>
      <point x="235" y="139" type="line"/>
      <point x="304" y="195" type="line"/>
    </contour>
  </outline>
</glyph>
<glyph name="l" format="2">
  <advance width="315"/>
  <unicode hex="006C"/>
  <outline>
    <contour>
      <point x="85" y="93" type="line" smooth="yes"/>
      <point x="69" y="35"/>
      <point x="101" y="-15"/>
      <point x="170" y="-15" type="curve" smooth="yes"/>
      <point x="196" y="-15"/>
      <point x="247" y="-8"/>
      <point x="296" y="3" type="curve"/>
      <point x="313" y="123" type="line"/>
      <point x="292" y="120"/>
      <point x="274" y="118"/>
      <point x="264" y="118" type="curve" smooth="yes"/>
      <point x="239" y="118"/>
      <point x="232" y="130"/>
      <point x="237" y="148" type="curve" smooth="yes"/>
      <point x="385" y="700" type="line"/>
      <point x="248" y="700" type="line"/>
    </contour>
  </outline>
</glyph>
<glyph name="m" format="2">
  <advance width="865"/>
  <unicode hex="006D"/>
  <outline>
    <contour>
      <point x="786" y="0" type="line"/>
      <point x="649" y="0" type="line"/>
      <point x="786" y="0" type="line"/>
      <point x="866" y="298" type="line" smooth="yes"/>
      <point x="900" y="424"/>
      <point x="838" y="512"/>
      <point x="729" y="512" type="curve" smooth="yes"/>
      <point x="668" y="512"/>
      <point x="604" y="485"/>
      <point x="569" y="443" type="curve"/>
      <point x="561" y="485"/>
      <point x="519" y="512"/>
      <point x="457" y="512" type="curve" smooth="yes"/>
      <point x="403" y="512"/>
      <point x="349" y="492"/>
      <point x="324" y="461" type="curve"/>
      <point x="334" y="500" type="line"/>
      <point x="197" y="500" type="line"/>
      <point x="63" y="0" type="line"/>
      <point x="200" y="0" type="line"/>
      <point x="280" y="300" type="line" smooth="yes"/>
      <point x="292" y="343"/>
      <point x="349" y="384"/>
      <point x="392" y="384" type="curve" smooth="yes"/>
      <point x="437" y="384"/>
      <point x="448" y="340"/>
      <point x="437" y="300" type="curve" smooth="yes"/>
      <point x="357" y="0" type="line"/>
      <point x="492" y="0" type="line"/>
      <point x="572" y="300" type="line" smooth="yes"/>
      <point x="584" y="343"/>
      <point x="641" y="384"/>
      <point x="685" y="384" type="curve" smooth="yes"/>
      <point x="730" y="384"/>
      <point x="740" y="341"/>
      <point x="729" y="300" type="curve" smooth="yes"/>
      <point x="649" y="0" type="line"/>
    </contour>
  </outline>
</glyph>
<glyph name="n" format="2">
  <advance width="595"/>
  <unicode hex="006E"/>
  <outline>
    <contour>
      <point x="405" y="386" type="curve" smooth="yes"/>
      <point x="463" y="386"/>
      <point x="475" y="342"/>
      <point x="463" y="298" type="curve" smooth="yes"/>
      <point x="383" y="0" type="line"/>
      <point x="520" y="0" type="line"/>
      <point x="383" y="0" type="line"/>
      <point x="520" y="0" type="line"/>
      <point x="600" y="299" type="line" smooth="yes"/>
      <point x="632" y="420"/>
      <point x="574" y="511"/>
      <point x="468" y="512" type="curve" smooth="yes"/>
      <point x="399" y="513"/>
      <point x="339" y="476"/>
      <point x="324" y="464" type="curve"/>
      <point x="334" y="500" type="line"/>
      <point x="197" y="500" type="line"/>
      <point x="63" y="0" type="line"/>
      <point x="200" y="0" type="line"/>
      <point x="281" y="301" type="line" smooth="yes"/>
      <point x="296" y="356"/>
      <point x="357" y="386"/>
    </contour>
  </outline>
</glyph>
<glyph name="o" format="2">
  <advance width="575"/>
  <unicode hex="006F"/>
  <anchor x="370" y="530" name="top"/>
  <outline>
    <contour>
      <point x="413" y="520" type="curve" smooth="yes"/>
      <point x="258" y="520"/>
      <point x="138" y="394"/>
      <point x="99" y="249" type="curve" smooth="yes"/>
      <point x="60" y="104"/>
      <point x="114" y="-20"/>
      <point x="269" y="-20" type="curve" smooth="yes"/>
      <point x="424" y="-20"/>
      <point x="544" y="104"/>
      <point x="583" y="249" type="curve" smooth="yes"/>
      <point x="622" y="395"/>
      <point x="568" y="520"/>
    </contour>
    <contour>
      <point x="301" y="100" type="curve" smooth="yes"/>
      <point x="226" y="100"/>
      <point x="218" y="182"/>
      <point x="235" y="247" type="curve" smooth="yes"/>
      <point x="252" y="312"/>
      <point x="306" y="400"/>
      <point x="381" y="400" type="curve" smooth="yes"/>
      <point x="456" y="400"/>
      <point x="462" y="312"/>
      <point x="445" y="247" type="curve" smooth="yes"/>
      <point x="427" y="181"/>
      <point x="376" y="100"/>
    </contour>
  </outline>
</glyph>
<glyph name="p" format="2">
  <advance width="600"/>
  <unicode hex="0070"/>
  <outline>
    <contour>
      <point x="620" y="252" type="curve" smooth="yes"/>
      <point x="665" y="420"/>
      <point x="598" y="520"/>
      <point x="466" y="520" type="curve" smooth="yes"/>
      <point x="412" y="520"/>
      <point x="354" y="502"/>
      <point x="319" y="473" type="curve"/>
      <point x="326" y="500" type="line"/>
      <point x="189" y="500" type="line"/>
      <point x="15" y="-150" type="line"/>
      <point x="152" y="-150" type="line"/>
      <point x="200" y="31" type="line"/>
      <point x="220" y="4"/>
      <point x="269" y="-14"/>
      <point x="325" y="-14" type="curve" smooth="yes"/>
      <point x="461" y="-14"/>
      <point x="577" y="90"/>
    </contour>
    <contour>
      <point x="334" y="107" type="curve" smooth="yes"/>
      <point x="270" y="107"/>
      <point x="233" y="154"/>
      <point x="245" y="198" type="curve" smooth="yes"/>
      <point x="274" y="306" type="line" smooth="yes"/>
      <point x="286" y="352"/>
      <point x="350" y="400"/>
      <point x="413" y="400" type="curve" smooth="yes"/>
      <point x="486" y="400"/>
      <point x="504" y="334"/>
      <point x="483" y="254" type="curve" smooth="yes"/>
      <point x="462" y="177"/>
      <point x="411" y="107"/>
    </contour>
  </outline>
</glyph>
<glyph name="q" format="2">
  <advance width="600"/>
  <unicode hex="0071"/>
  <outline>
    <contour>
      <point x="113" y="252" type="curve" smooth="yes"/>
      <point x="70" y="90"/>
      <point x="129" y="-14"/>
      <point x="262" y="-14" type="curve" smooth="yes"/>
      <point x="321" y="-14"/>
      <point x="380" y="4"/>
      <point x="412" y="31" type="curve"/>
      <point x="364" y="-150" type="line"/>
      <point x="502" y="-150" type="line"/>
      <point x="676" y="500" type="line"/>
      <point x="538" y="500" type="line"/>
      <point x="531" y="473" type="line"/>
      <point x="511" y="502"/>
      <point x="462" y="520"/>
      <point x="406" y="520" type="curve" smooth="yes"/>
      <point x="277" y="520"/>
      <point x="158" y="420"/>
    </contour>
    <contour>
      <point x="321" y="107" type="curve" smooth="yes"/>
      <point x="244" y="107"/>
      <point x="228" y="177"/>
      <point x="249" y="254" type="curve" smooth="yes"/>
      <point x="270" y="334"/>
      <point x="325" y="400"/>
      <point x="398" y="400" type="curve" smooth="yes"/>
      <point x="461" y="400"/>
      <point x="498" y="352"/>
      <point x="486" y="306" type="curve" smooth="yes"/>
      <point x="457" y="198" type="line" smooth="yes"/>
      <point x="445" y="154"/>
      <point x="385" y="107"/>
    </contour>
  </outline>
</glyph>
<glyph name="r" format="2">
  <advance width="425"/>
  <unicode hex="0072"/>
  <outline>
    <contour>
      <point x="462" y="376" type="curve"/>
      <point x="497" y="508" type="line"/>
      <point x="464" y="508" type="line" smooth="yes"/>
      <point x="416" y="508"/>
      <point x="359" y="485"/>
      <point x="322" y="450" type="curve"/>
      <point x="335" y="499" type="line"/>
      <point x="199" y="499" type="line"/>
      <point x="65" y="0" type="line"/>
      <point x="201" y="0" type="line"/>
      <point x="272" y="265" type="line" smooth="yes"/>
      <point x="289" y="328"/>
      <point x="357" y="381"/>
      <point x="431" y="378" type="curve" smooth="yes"/>
      <point x="434" y="378"/>
      <point x="452" y="377"/>
    </contour>
  </outline>
</glyph>
<glyph name="s" format="2">
  <advance width="500"/>
  <unicode hex="0073"/>
  <outline>
    <contour>
      <point x="465" y="350" type="curve"/>
      <point x="573" y="440" type="line"/>
      <point x="536" y="486"/>
      <point x="461" y="515"/>
      <point x="381" y="515" type="curve" smooth="yes"/>
      <point x="260" y="515"/>
      <point x="166" y="446"/>
      <point x="141" y="352" type="curve" smooth="yes"/>
      <point x="120" y="274"/>
      <point x="158" y="218"/>
      <point x="243" y="201" type="curve" smooth="yes"/>
      <point x="303" y="189" type="line" smooth="yes"/>
      <point x="335" y="183"/>
      <point x="367" y="175"/>
      <point x="359" y="144" type="curve" smooth="yes"/>
      <point x="350" y="110"/>
      <point x="306" y="99"/>
      <point x="277" y="99" type="curve" smooth="yes"/>
      <point x="231" y="99"/>
      <point x="182" y="127"/>
      <point x="157" y="169" type="curve"/>
      <point x="33" y="78" type="line"/>
      <point x="90" y="2"/>
      <point x="172" y="-15"/>
      <point x="254" y="-15" type="curve" smooth="yes"/>
      <point x="364" y="-15"/>
      <point x="474" y="51"/>
      <point x="501" y="150" type="curve" smooth="yes"/>
      <point x="523" y="232"/>
      <point x="483" y="295"/>
      <point x="394" y="309" type="curve" smooth="yes"/>
      <point x="325" y="320" type="line" smooth="yes"/>
      <point x="284" y="327"/>
      <point x="275" y="339"/>
      <point x="280" y="356" type="curve" smooth="yes"/>
      <point x="289" y="388"/>
      <point x="330" y="405"/>
      <point x="362" y="405" type="curve" smooth="yes"/>
      <point x="410" y="405"/>
      <point x="448" y="373"/>
    </contour>
  </outline>
</glyph>
<glyph name="t" format="2">
  <advance width="420"/>
  <unicode hex="0074"/>
  <outline>
    <contour>
      <point x="287" y="660" type="line"/>
      <point x="245" y="504" type="line"/>
      <point x="165" y="504" type="line"/>
      <point x="135" y="390" type="line"/>
      <point x="215" y="390" type="line"/>
      <point x="135" y="93" type="line" smooth="yes"/>
      <point x="115" y="17"/>
      <point x="167" y="-16"/>
      <point x="247" y="-16" type="curve" smooth="yes"/>
      <point x="288" y="-16"/>
      <point x="346" y="-7"/>
      <point x="395" y="6" type="curve"/>
      <point x="395" y="120" type="line"/>
      <point x="372" y="112"/>
      <point x="341" y="107"/>
      <point x="324" y="107" type="curve" smooth="yes"/>
      <point x="293" y="107"/>
      <point x="280" y="124"/>
      <point x="286" y="146" type="curve" smooth="yes"/>
      <point x="352" y="390" type="line"/>
      <point x="478" y="390" type="line"/>
      <point x="508" y="504" type="line"/>
      <point x="382" y="504" type="line"/>
      <point x="434" y="699" type="line"/>
    </contour>
  </outline>
</glyph>
<glyph name="u" format="2">
  <advance width="600"/>
  <unicode hex="0075"/>
  <anchor x="410" y="530" name="top"/>
  <outline>
    <contour>
      <point x="311" y="114" type="curve" smooth="yes"/>
      <point x="253" y="114"/>
      <point x="242" y="158"/>
      <point x="254" y="202" type="curve" smooth="yes"/>
      <point x="334" y="500" type="line"/>
      <point x="197" y="500" type="line"/>
      <point x="334" y="500" type="line"/>
      <point x="197" y="500" type="line"/>
      <point x="117" y="201" type="line" smooth="yes"/>
      <point x="85" y="80"/>
      <point x="143" y="-11"/>
      <point x="249" y="-12" type="curve" smooth="yes"/>
      <point x="318" y="-13"/>
      <point x="378" y="24"/>
      <point x="393" y="36" type="curve"/>
      <point x="383" y="0" type="line"/>
      <point x="520" y="0" type="line"/>
      <point x="654" y="500" type="line"/>
      <point x="517" y="500" type="line"/>
      <point x="436" y="199" type="line" smooth="yes"/>
      <point x="421" y="144"/>
      <point x="359" y="114"/>
    </contour>
  </outline>
</glyph>
<glyph name="v" format="2">
  <advance width="535"/>
  <unicode hex="0076"/>
  <outline>
    <contour>
      <point x="151" y="500" type="line"/>
      <point x="191" y="0" type="line"/>
      <point x="344" y="0" type="line"/>
      <point x="651" y="500" type="line"/>
      <point x="510" y="500" type="line"/>
      <point x="318" y="186" type="line"/>
      <point x="292" y="500" type="line"/>
    </contour>
  </outline>
</glyph>
<glyph name="w" format="2">
  <advance width="800"/>
  <unicode hex="0077"/>
  <outline>
    <contour>
      <point x="461" y="0" type="line"/>
      <point x="621" y="0" type="line"/>
      <point x="896" y="500" type="line"/>
      <point x="760" y="500" type="line"/>
      <point x="587" y="183" type="line"/>
      <point x="597" y="500" type="line"/>
      <point x="449" y="500" type="line"/>
      <point x="289" y="183" type="line"/>
      <point x="285" y="500" type="line"/>
      <point x="150" y="500" type="line"/>
      <point x="157" y="0" type="line"/>
      <point x="317" y="0" type="line"/>
      <point x="472" y="309" type="line"/>
    </contour>
  </outline>
</glyph>
<glyph name="x" format="2">
  <advance width="550"/>
  <unicode hex="0078"/>
  <outline>
    <contour>
      <point x="367" y="0" type="line"/>
      <point x="521" y="0" type="line"/>
      <point x="415" y="265" type="line"/>
      <point x="634" y="500" type="line"/>
      <point x="481" y="500" type="line"/>
      <point x="369" y="380" type="line"/>
      <point x="321" y="500" type="line"/>
      <point x="168" y="500" type="line"/>
      <point x="261" y="265" type="line"/>
      <point x="13" y="0" type="line"/>
      <point x="167" y="0" type="line"/>
      <point x="308" y="152" type="line"/>
    </contour>
  </outline>
</glyph>
<glyph name="y" format="2">
  <advance width="510"/>
  <unicode hex="0079"/>
  <outline>
    <contour>
      <point x="309" y="198" type="line"/>
      <point x="282" y="500" type="line"/>
      <point x="144" y="500" type="line"/>
      <point x="187" y="23" type="line"/>
      <point x="186" y="10" type="line"/>
      <point x="175" y="-19"/>
      <point x="151" y="-39"/>
      <point x="122" y="-40" type="curve" smooth="yes"/>
      <point x="113" y="-40"/>
      <point x="103" y="-38"/>
      <point x="96" y="-37" type="curve" smooth="yes"/>
      <point x="55" y="-30" type="line"/>
      <point x="6" y="-149" type="line"/>
      <point x="50" y="-158"/>
      <point x="102" y="-164"/>
      <point x="135" y="-163" type="curve" smooth="yes"/>
      <point x="204" y="-162"/>
      <point x="243" y="-130"/>
      <point x="271" y="-84" type="curve" smooth="yes"/>
      <point x="636" y="500" type="line"/>
      <point x="498" y="500" type="line"/>
    </contour>
  </outline>
</glyph>
<glyph name="z" format="2">
  <advance width="465"/>
  <unicode hex="007A"/>
  <outline>
    <contour>
      <point x="27" y="0" type="line"/>
      <point x="423" y="0" type="line"/>
      <point x="454" y="117" type="line"/>
      <point x="227" y="117" type="line"/>
      <point x="520" y="383" type="line"/>
      <point x="551" y="500" type="line"/>
      <point x="174" y="500" type="line"/>
      <point x="143" y="383" type="line"/>
      <point x="350" y="383" type="line"/>
      <point x="58" y="117" type="line"/>
    </contour>
  </outline>
</glyph>
<glyph name="sterling" format="2">
  <advance width="700"/>
  <unicode hex="00A3"/>
  <outline>
    <contour>
      <point x="347" y="264" type="curve"/>
      <point x="501" y="264" type="line"/>
      <point x="527" y="363" type="line"/>
      <point x="351" y="363" type="line"/>
      <point x="330" y="374"/>
      <point x="324" y="412"/>
      <point x="335" y="453" type="curve" smooth="yes"/>
      <point x="357" y="534"/>
      <point x="428" y="570"/>
      <point x="477" y="570" type="curve" smooth="yes"/>
      <point x="534" y="570"/>
      <point x="563" y="532"/>
      <point x="553" y="475" type="curve"/>
      <point x="693" y="490" type="line"/>
      <point x="719" y="620"/>
      <point x="643" y="706"/>
      <point x="509" y="706" type="curve" smooth="yes"/>
      <point x="358" y="706"/>
      <point x="237" y="597"/>
      <point x="202" y="467" type="curve" smooth="yes"/>
      <point x="190" y="422"/>
      <point x="187" y="380"/>
      <point x="195" y="363" type="curve"/>
      <point x="150" y="363" type="line"/>
      <point x="124" y="264" type="line"/>
      <point x="210" y="264" type="line"/>
      <point x="204" y="243" type="line" smooth="yes"/>
      <point x="190" y="190"/>
      <point x="136" y="145"/>
      <point x="72" y="132" type="curve"/>
      <point x="74" y="0" type="line"/>
      <point x="113" y="9"/>
      <point x="161" y="15"/>
      <point x="197" y="15" type="curve" smooth="yes"/>
      <point x="263" y="15"/>
      <point x="312" y="-5"/>
      <point x="366" y="-13" type="curve" smooth="yes"/>
      <point x="396" y="-17"/>
      <point x="425" y="-19"/>
      <point x="445" y="-19" type="curve" smooth="yes"/>
      <point x="500" y="-19"/>
      <point x="561" y="-11"/>
      <point x="597" y="0" type="curve"/>
      <point x="595" y="131" type="line"/>
      <point x="557" y="123"/>
      <point x="512" y="118"/>
      <point x="478" y="118" type="curve" smooth="yes"/>
      <point x="408" y="118"/>
      <point x="334" y="130"/>
      <point x="293" y="149" type="curve"/>
      <point x="318" y="183"/>
      <point x="340" y="229"/>
    </contour>
  </outline>
</glyph>
<glyph name="periodcentered" format="2">
  <advance width="280"/>
  <unicode hex="00B7"/>
  <outline>
    <contour>
      <point x="299" y="299" type="curve" smooth="yes"/>
      <point x="299" y="339"/>
      <point x="266" y="374"/>
      <point x="224" y="374" type="curve" smooth="yes"/>
      <point x="182" y="374"/>
      <point x="149" y="339"/>
      <point x="149" y="299" type="curve" smooth="yes"/>
      <point x="149" y="259"/>
      <point x="182" y="224"/>
      <point x="224" y="224" type="curve" smooth="yes"/>
      <point x="266" y="224"/>
      <point x="299" y="259"/>
    </contour>
  </outline>
</glyph>
<glyph name="onequarter" format="2">
  <advance width="650"/>
  <unicode hex="00BC"/>
  <outline>
    <contour>
      <point x="678" y="491" type="line"/>
      <point x="538" y="491" type="line"/>
      <point x="207" y="186" type="line"/>
      <point x="179" y="83" type="line"/>
      <point x="456" y="83" type="line"/>
      <point x="434" y="0" type="line"/>
      <point x="546" y="0" type="line"/>
      <point x="568" y="83" type="line"/>
      <point x="641" y="83" type="line"/>
      <point x="669" y="186" type="line"/>
      <point x="596" y="186" type="line"/>
    </contour>
    <contour>
      <point x="332" y="186" type="line"/>
      <point x="534" y="373" type="line"/>
      <point x="484" y="186" type="line"/>
    </contour>
    <contour>
      <point x="219" y="721" type="curve"/>
      <point x="200" y="648" type="line"/>
      <point x="269" y="648" type="line"/>
      <point x="176" y="302" type="line"/>
      <point x="288" y="302" type="line"/>
      <point x="420" y="795" type="line"/>
      <point x="319" y="795" type="line"/>
      <point x="301" y="740"/>
      <point x="261" y="710"/>
    </contour>
  </outline>
</glyph>
<glyph name="onehalf" format="2">
  <advance width="680"/>
  <unicode hex="00BD"/>
  <outline>
    <contour>
      <point x="342" y="329" type="curve" smooth="yes"/>
      <point x="335" y="302" type="line"/>
      <point x="446" y="302" type="line"/>
      <point x="450" y="365"/>
      <point x="492" y="408"/>
      <point x="547" y="408" type="curve" smooth="yes"/>
      <point x="595" y="408"/>
      <point x="617" y="377"/>
      <point x="605" y="332" type="curve" smooth="yes"/>
      <point x="585" y="257"/>
      <point x="486" y="207"/>
      <point x="407" y="161" type="curve" smooth="yes"/>
      <point x="382" y="147"/>
      <point x="334" y="120"/>
      <point x="289" y="96" type="curve"/>
      <point x="263" y="0" type="line"/>
      <point x="623" y="0" type="line"/>
      <point x="649" y="96" type="line"/>
      <point x="478" y="96" type="line"/>
      <point x="592" y="131"/>
      <point x="687" y="226"/>
      <point x="714" y="325" type="curve" smooth="yes"/>
      <point x="738" y="413"/>
      <point x="706" y="505"/>
      <point x="582" y="505" type="curve" smooth="yes"/>
      <point x="487" y="505"/>
      <point x="375" y="452"/>
    </contour>
    <contour>
      <point x="219" y="721" type="curve"/>
      <point x="200" y="648" type="line"/>
      <point x="269" y="648" type="line"/>
      <point x="176" y="302" type="line"/>
      <point x="288" y="302" type="line"/>
      <point x="420" y="795" type="line"/>
      <point x="319" y="795" type="line"/>
      <point x="301" y="740"/>
      <point x="261" y="710"/>
    </contour>
  </outline>
</glyph>
<glyph name="threequarters" format="2">
  <advance width="810"/>
  <unicode hex="00BE"/>
  <outline>
    <contour>
      <point x="430" y="448" type="curve" smooth="yes"/>
      <point x="419" y="406"/>
      <point x="375" y="390"/>
      <point x="335" y="390" type="curve" smooth="yes"/>
      <point x="295" y="390"/>
      <point x="263" y="416"/>
      <point x="256" y="456" type="curve"/>
      <point x="142" y="436" type="line"/>
      <point x="152" y="349"/>
      <point x="221" y="290"/>
      <point x="328" y="290" type="curve" smooth="yes"/>
      <point x="421" y="290"/>
      <point x="513" y="334"/>
      <point x="541" y="440" type="curve" smooth="yes"/>
      <point x="557" y="498"/>
      <point x="541" y="545"/>
      <point x="501" y="557" type="curve"/>
      <point x="542" y="577"/>
      <point x="576" y="612"/>
      <point x="588" y="656" type="curve" smooth="yes"/>
      <point x="613" y="749"/>
      <point x="521" y="801"/>
      <point x="433" y="801" type="curve" smooth="yes"/>
      <point x="350" y="801"/>
      <point x="259" y="743"/>
      <point x="206" y="656" type="curve"/>
      <point x="310" y="642" type="line"/>
      <point x="337" y="680"/>
      <point x="378" y="705"/>
      <point x="417" y="705" type="curve" smooth="yes"/>
      <point x="454" y="705"/>
      <point x="482" y="682"/>
      <point x="473" y="647" type="curve" smooth="yes"/>
      <point x="459" y="595"/>
      <point x="410" y="575"/>
      <point x="350" y="596" type="curve"/>
      <point x="326" y="508" type="line"/>
      <point x="404" y="532"/>
      <point x="446" y="508"/>
    </contour>
    <contour>
      <point x="834" y="491" type="line"/>
      <point x="694" y="491" type="line"/>
      <point x="363" y="186" type="line"/>
      <point x="335" y="83" type="line"/>
      <point x="612" y="83" type="line"/>
      <point x="590" y="0" type="line"/>
      <point x="702" y="0" type="line"/>
      <point x="724" y="83" type="line"/>
      <point x="797" y="83" type="line"/>
      <point x="825" y="186" type="line"/>
      <point x="752" y="186" type="line"/>
    </contour>
    <contour>
      <point x="488" y="186" type="line"/>
      <point x="690" y="373" type="line"/>
      <point x="640" y="186" type="line"/>
    </contour>
  </outline>
</glyph>
<glyph name="dotlessi" format="2">
  <advance width="275"/>
  <unicode hex="0131"/>
  <outline>
    <contour>
      <point x="194.975" y="500" type="line"/>
      <point x="87.259" y="98" type="line" smooth="yes"/>
      <point x="74.6654" y="51"/>
      <point x="90.8423" y="33"/>
      <point x="121" y="0" type="curve"/>
      <point x="258" y="0" type="line"/>
      <point x="227.842" y="33"/>
      <point x="211.665" y="51"/>
      <point x="224.259" y="98" type="curve" smooth="yes"/>
      <point x="331.975" y="500" type="line"/>
    </contour>
  </outline>
</glyph>
<glyph name="acutecomb" format="2">
  <advance width="333"/>
  <unicode hex="0301"/>
  <anchor x="308" y="530" name="_top"/>
  <outline>
    <contour>
      <point x="232.509" y="603.294" type="line"/>
      <point x="240.691" y="579.668" type="line"/>
      <point x="427.414" y="621.025" type="line"/>
      <point x="409.171" y="667.594" type="line"/>
    </contour>
  </outline>
</glyph>
<glyph name="uni2032" format="2">
  <advance width="440"/>
  <unicode hex="2032"/>
  <outline>
    <contour>
      <point x="177" y="549" type="line"/>
      <point x="326" y="549" type="line"/>
      <point x="490" y="742" type="line"/>
      <point x="340" y="742" type="line"/>
    </contour>
    <contour>
      <point x="480" y="459" type="line"/>
      <point x="240" y="459" type="line"/>
      <point x="208" y="340" type="line"/>
      <point x="448" y="340" type="line"/>
    </contour>
  </outline>
</glyph>
<glyph name="uni2033" format="2">
  <advance width="505"/>
  <unicode hex="2033"/>
  <outline>
    <contour>
      <point x="377" y="549" type="line"/>
      <point x="527" y="549" type="line"/>
      <point x="690" y="742" type="line"/>
      <point x="540" y="742" type="line"/>
    </contour>
    <contour>
      <point x="177" y="549" type="line"/>
      <point x="326" y="549" type="line"/>
      <point x="490" y="742" type="line"/>
      <point x="340" y="742" type="line"/>
    </contour>
  </outline>
</glyph>
<glyph name="onethird" format="2">
  <advance width="680"/>
  <unicode hex="2153"/>
  <outline>
    <contour>
      <point x="582" y="157" type="curve" smooth="yes"/>
      <point x="569" y="109"/>
      <point x="525" y="93"/>
      <point x="490" y="93" type="curve" smooth="yes"/>
      <point x="445" y="93"/>
      <point x="412" y="119"/>
      <point x="407" y="159" type="curve"/>
      <point x="291" y="138" type="line"/>
      <point x="297" y="51"/>
      <point x="371" y="-7"/>
      <point x="478" y="-7" type="curve" smooth="yes"/>
      <point x="571" y="-7"/>
      <point x="663" y="37"/>
      <point x="691" y="140" type="curve" smooth="yes"/>
      <point x="707" y="201"/>
      <point x="692" y="249"/>
      <point x="652" y="260" type="curve"/>
      <point x="692" y="275"/>
      <point x="726" y="315"/>
      <point x="738" y="359" type="curve" smooth="yes"/>
      <point x="763" y="452"/>
      <point x="671" y="504"/>
      <point x="588" y="504" type="curve" smooth="yes"/>
      <point x="500" y="504"/>
      <point x="407" y="446"/>
      <point x="356" y="359" type="curve"/>
      <point x="460" y="345" type="line"/>
      <point x="485" y="383"/>
      <point x="528" y="408"/>
      <point x="567" y="408" type="curve" smooth="yes"/>
      <point x="604" y="408"/>
      <point x="633" y="385"/>
      <point x="622" y="344" type="curve" smooth="yes"/>
      <point x="610" y="298"/>
      <point x="560" y="280"/>
      <point x="499" y="299" type="curve"/>
      <point x="476" y="211" type="line"/>
      <point x="554" y="232"/>
      <point x="596" y="210"/>
    </contour>
    <contour>
      <point x="219" y="721" type="curve"/>
      <point x="200" y="648" type="line"/>
      <point x="269" y="648" type="line"/>
      <point x="176" y="302" type="line"/>
      <point x="288" y="302" type="line"/>
      <point x="420" y="795" type="line"/>
      <point x="319" y="795" type="line"/>
      <point x="301" y="740"/>
      <point x="261" y="710"/>
    </contour>
  </outline>
</glyph>
<glyph name="twothirds" format="2">
  <advance width="860"/>
  <unicode hex="2154"/>
  <outline>
    <contour>
      <point x="753" y="156" type="curve" smooth="yes"/>
      <point x="740" y="108"/>
      <point x="696" y="92"/>
      <point x="661" y="92" type="curve" smooth="yes"/>
      <point x="616" y="92"/>
      <point x="583" y="118"/>
      <point x="578" y="158" type="curve"/>
      <point x="462" y="137" type="line"/>
      <point x="468" y="50"/>
      <point x="542" y="-8"/>
      <point x="649" y="-8" type="curve" smooth="yes"/>
      <point x="742" y="-8"/>
      <point x="834" y="36"/>
      <point x="862" y="139" type="curve" smooth="yes"/>
      <point x="878" y="200"/>
      <point x="863" y="248"/>
      <point x="823" y="259" type="curve"/>
      <point x="863" y="274"/>
      <point x="897" y="314"/>
      <point x="909" y="358" type="curve" smooth="yes"/>
      <point x="934" y="451"/>
      <point x="842" y="503"/>
      <point x="759" y="503" type="curve" smooth="yes"/>
      <point x="671" y="503"/>
      <point x="578" y="445"/>
      <point x="527" y="358" type="curve"/>
      <point x="631" y="344" type="line"/>
      <point x="656" y="382"/>
      <point x="699" y="407"/>
      <point x="738" y="407" type="curve" smooth="yes"/>
      <point x="775" y="407"/>
      <point x="804" y="384"/>
      <point x="793" y="343" type="curve" smooth="yes"/>
      <point x="781" y="297"/>
      <point x="731" y="279"/>
      <point x="670" y="298" type="curve"/>
      <point x="647" y="210" type="line"/>
      <point x="725" y="231"/>
      <point x="767" y="209"/>
    </contour>
    <contour>
      <point x="188" y="625" type="curve" smooth="yes"/>
      <point x="182" y="599" type="line"/>
      <point x="294" y="599" type="line"/>
      <point x="298" y="662"/>
      <point x="340" y="705"/>
      <point x="395" y="705" type="curve" smooth="yes"/>
      <point x="443" y="705"/>
      <point x="464" y="673"/>
      <point x="452" y="628" type="curve" smooth="yes"/>
      <point x="432" y="553"/>
      <point x="333" y="503"/>
      <point x="254" y="457" type="curve" smooth="yes"/>
      <point x="229" y="443"/>
      <point x="181" y="417"/>
      <point x="136" y="393" type="curve"/>
      <point x="110" y="296" type="line"/>
      <point x="470" y="296" type="line"/>
      <point x="496" y="393" type="line"/>
      <point x="325" y="393" type="line"/>
      <point x="439" y="428"/>
      <point x="533" y="522"/>
      <point x="560" y="621" type="curve" smooth="yes"/>
      <point x="584" y="709"/>
      <point x="553" y="802"/>
      <point x="429" y="802" type="curve" smooth="yes"/>
      <point x="334" y="802"/>
      <point x="221" y="748"/>
    </contour>
  </outline>
</glyph>
<glyph name="uni2191" format="2">
  <advance width="1000"/>
  <unicode hex="2191"/>
  <outline>
    <contour>
      <point x="835" y="1250" type="line"/>
      <point x="201" y="750" type="line"/>
      <point x="67" y="250" type="line"/>
      <point x="489" y="584" type="line"/>
      <point x="199" y="-500" type="line"/>
      <point x="533" y="-500" type="line"/>
      <point x="823" y="584" type="line"/>
      <point x="1067" y="250" type="line"/>
      <point x="1201" y="750" type="line"/>
    </contour>
  </outline>
</glyph>
<glyph name="uni2192" format="2">
  <advance width="2000"/>
  <unicode hex="2192"/>
  <outline>
    <contour>
      <point x="22" y="83" type="line"/>
      <point x="1355" y="83" type="line"/>
      <point x="933" y="-250" type="line"/>
      <point x="1433" y="-250" type="line"/>
      <point x="2067" y="250" type="line"/>
      <point x="1701" y="749" type="line"/>
      <point x="1201" y="749" type="line"/>
      <point x="1445" y="417" type="line"/>
      <point x="112" y="417" type="line"/>
    </contour>
  </outline>
</glyph>
<glyph name="uni2193" format="2">
  <advance width="2125"/>
  <unicode hex="2193"/>
  <outline>
    <contour>
      <point x="928" y="433" type="line"/>
      <point x="167" y="625" type="line"/>
      <point x="1030" y="-125" type="line"/>
      <point x="2291" y="625" type="line"/>
      <point x="1428" y="433" type="line"/>
      <point x="1513" y="750" type="line"/>
      <point x="1013" y="750" type="line"/>
    </contour>
  </outline>
</glyph>
<glyph name="acutecomb.case" format="2">
  <advance width="333"/>
  <anchor x="365.679" y="725" name="_top"/>
  <outline>
    <contour>
      <point x="207.892" y="789.365" type="line"/>
      <point x="218.494" y="760.235" type="line"/>
      <point x="522.281" y="837.815" type="line"/>
      <point x="501.076" y="896.076" type="line"/>
    </contour>
  </outline>
</glyph>
<glyph name="glyph88" format="2">
  <advance width="1340"/>
  <outline>
    <contour>
      <point x="233" y="555" type="line"/>
      <point x="169" y="310" type="line"/>
      <point x="216" y="310" type="line"/>
      <point x="268" y="488" type="line"/>
      <point x="277" y="494"/>
      <point x="278" y="505"/>
      <point x="295" y="507" type="curve" smooth="yes"/>
      <point x="312" y="509"/>
      <point x="316" y="500"/>
      <point x="315" y="488" type="curve"/>
      <point x="268" y="310" type="line"/>
      <point x="315" y="310" type="line"/>
      <point x="362" y="488" type="line"/>
      <point x="372" y="494"/>
      <point x="376" y="507"/>
      <point x="392" y="507" type="curve" smooth="yes"/>
      <point x="408" y="507"/>
      <point x="411" y="498"/>
      <point x="412" y="488" type="curve"/>
      <point x="362" y="310" type="line"/>
      <point x="412" y="310" type="line"/>
      <point x="462" y="507" type="line"/>
      <point x="468" y="536"/>
      <point x="463" y="555"/>
      <point x="429" y="555" type="curve" smooth="yes"/>
      <point x="395" y="555"/>
      <point x="385" y="545"/>
      <point x="370" y="531" type="curve"/>
      <point x="358" y="539"/>
      <point x="352" y="555"/>
      <point x="334" y="555" type="curve" smooth="yes"/>
      <point x="316" y="555"/>
      <point x="292" y="547"/>
      <point x="276" y="536" type="curve"/>
      <point x="282" y="555" type="line"/>
    </contour>
    <contour>
      <point x="895" y="555" type="line"/>
      <point x="895" y="522" type="line"/>
      <point x="838" y="310" type="line"/>
      <point x="885" y="310" type="line"/>
      <point x="929" y="478" type="line" smooth="yes"/>
      <point x="933" y="494"/>
      <point x="961" y="511"/>
      <point x="984" y="511" type="curve" smooth="yes"/>
      <point x="1007" y="511"/>
      <point x="1023" y="493"/>
      <point x="1019" y="478" type="curve"/>
      <point x="981" y="310" type="line"/>
      <point x="1019" y="310" type="line"/>
      <point x="1069" y="500" type="line" smooth="yes"/>
      <point x="1075" y="524"/>
      <point x="1057" y="560"/>
      <point x="1023" y="560" type="curve" smooth="yes"/>
      <point x="1001" y="560"/>
      <point x="965" y="548"/>
      <point x="951" y="533" type="curve"/>
      <point x="940" y="555" type="line"/>
    </contour>
  </outline>
    <image fileName="glyph88.glif-Heavy.png" xScale="1.89189" yScale="-1.89189" xOffset="29" yOffset="738"/>
</glyph>
